<svg xmlns="http://www.w3.org/2000/svg" width="24" height="24" viewBox="0 0 24 24" fill="none" stroke="currentColor" stroke-width="1.5" stroke-linecap="round" stroke-linejoin="round">
  <!-- Center hexagon (CDD core) -->
  <polygon points="12,8 15,10 15,14 12,16 9,14 9,10"/>
  <!-- Petals radiating outward (sunflower) -->
  <path d="M12,8 Q12,4 12,2"/>
  <path d="M15,10 Q18,8 20,6"/>
  <path d="M15,14 Q18,16 20,18"/>
  <path d="M12,16 Q12,20 12,22"/>
  <path d="M9,14 Q6,16 4,18"/>
  <path d="M9,10 Q6,8 4,6"/>
  <!-- Outer petal curves -->
  <path d="M12,2 Q15,3 16,5"/>
  <path d="M20,6 Q21,9 19,11"/>
  <path d="M20,18 Q19,21 16,21"/>
  <path d="M12,22 Q9,21 8,19"/>
  <path d="M4,18 Q3,15 5,13"/>
  <path d="M4,6 Q5,3 8,3"/>
</svg>
